<?xml version="1.0" encoding="iso-8859-1"?>
<!-- Generator: Adobe Illustrator 18.0.0, SVG Export Plug-In . SVG Version: 6.00 Build 0)  -->
<!DOCTYPE svg PUBLIC "-//W3C//DTD SVG 1.1//EN" "http://www.w3.org/Graphics/SVG/1.1/DTD/svg11.dtd">
<svg version="1.1" id="Capa_1" xmlns="http://www.w3.org/2000/svg" xmlns:xlink="http://www.w3.org/1999/xlink" x="0px" y="0px"
	 viewBox="0 0 460.245 460.245" style="enable-background:new 0 0 460.245 460.245;" xml:space="preserve">
<g id="XMLID_395_">
	<path id="XMLID_398_" d="M445.426,183.281H398.45c8.065,7.642,13.49,18.028,14.775,29.638h32.201
		c8.185,0,14.819-6.634,14.819-14.819C460.245,189.916,453.611,183.281,445.426,183.281z"/>
	<path id="XMLID_397_" d="M181.339,183.116l-82.855-9.782l-73.703-38.502c-8.289-4.332-18.522-1.12-22.853,7.169
		c-4.331,8.291-1.121,18.523,7.169,22.853L85.562,204.8c1.826,0.954,3.81,1.567,5.856,1.809l67.068,7.918l-17.966,78.942H56.476
		c-9.354,0-16.936,7.583-16.936,16.936c0,9.353,7.583,16.936,16.936,16.936h97.559c7.906,0,14.76-5.469,16.514-13.178l10.463-45.976
		l62.896,0.39c-1.186-7.642,1.111-15.141,3.953-18.732l31.982-36.926l-21.307,45.377c-2.022,4.307-1.748,9.33,0.712,13.384
		c31.383,51.733,29.506,48.693,30.06,49.454c4.321,5.931,12.526,7.576,18.812,3.763c6.71-4.07,8.825-12.797,4.77-19.482
		l-25.445-41.945l22.927-48.827l-8.591,46.207l3.589,5.916c6.465-3.258,10.926-9.921,10.974-17.658l0.224-36.19
		c0,0,0.288-22.682,15.685-29.638L181.339,183.116z"/>
	<path id="XMLID_396_" d="M365.539,184.967c-0.071,0-0.14-0.001-0.211-0.001c-18.286,0.001-33.168,14.768-33.282,33.08
		c-0.114,18.383,14.696,33.378,33.08,33.492c0.071,0.001,0.14,0.001,0.211,0.001c18.286,0,33.168-14.768,33.282-33.08
		C398.733,200.076,383.922,185.081,365.539,184.967z"/>
</g>
<g>
</g>
<g>
</g>
<g>
</g>
<g>
</g>
<g>
</g>
<g>
</g>
<g>
</g>
<g>
</g>
<g>
</g>
<g>
</g>
<g>
</g>
<g>
</g>
<g>
</g>
<g>
</g>
<g>
</g>
</svg>
